
<svg height="100%" stroke-miterlimit="10" style="fill-rule:nonzero;clip-rule:evenodd;stroke-linecap:round;stroke-linejoin:round;" version="1.1" viewBox="197.79 137.837 87.49 80.1992" width="100%" xml:space="preserve" xmlns="http://www.w3.org/2000/svg" xmlns:vectornator="http://vectornator.io" xmlns:xlink="http://www.w3.org/1999/xlink">
<defs/>
<clipPath id="ArtboardFrame">
<rect height="80.1992" width="87.49" x="197.79" y="137.837"/>
</clipPath>
<g clip-path="url(#ArtboardFrame)" id="Layer" vectornator:layerName="Layer">
<g opacity="1" vectornator:layerName="Black Jaguar">
<path d="M261.016 146.463C261.016 142.281 267.155 137.837 271.143 137.837C276.651 137.837 281.635 140.225 281.635 146.772C281.635 154.639 273.454 158.711 268.456 160.337L261.016 146.463ZM222.054 146.463C222.054 142.281 215.915 137.837 211.927 137.837C206.419 137.837 201.435 140.225 201.435 146.772C201.435 154.639 209.616 158.711 214.614 160.337L222.054 146.463ZM230.599 177.937C230.599 179.654 230.599 179.647 230.599 180.077C230.599 180.077 238.768 185.228 241.535 185.228C244.302 185.228 252.471 180.507 252.471 179.647C252.471 178.36 252.471 179.217 252.471 177.93C252.26 175.6 247.863 174.292 241.553 174.292C235.243 174.292 230.599 175.768 230.599 177.937Z" fill="#000000" fill-rule="nonzero" opacity="1" stroke="none" vectornator:layerName="path"/>
<path d="M270.881 156.065C270.881 144.097 264.137 137.837 254.476 137.837C250.466 137.837 241.535 139.66 241.535 139.66C241.535 139.66 234.244 137.837 228.594 137.837C218.933 137.837 212.189 144.097 212.189 156.065C212.189 156.065 197.79 168.824 197.79 188.873C197.79 188.873 203.623 199.627 217.84 203.455C217.84 203.455 230.599 218.037 241.535 218.037C252.471 218.037 265.23 203.455 265.23 203.455C279.728 199.842 285.28 188.873 285.28 188.873C285.28 168.824 270.881 156.065 270.881 156.065ZM241.535 210.746C234.244 210.746 223.308 199.81 223.308 196.164C223.308 185.228 230.599 177.937 230.599 177.937L252.471 177.937C252.471 177.937 259.762 185.228 259.762 196.164C259.762 199.81 248.826 210.746 241.535 210.746ZM263.407 164.715C263.407 168.824 259.952 170.646 257.939 170.646C255.927 170.646 252.471 169.013 252.471 167.001L263.407 163.355L263.407 164.715ZM219.662 163.355L230.599 167.001C230.599 169.013 227.143 170.646 225.131 170.646C223.118 170.646 219.662 168.824 219.662 164.715L219.662 163.355Z" fill="#000000" fill-rule="nonzero" opacity="1" stroke="none" vectornator:layerName="path"/>
<path d="M241.535 196.164C241.535 196.164 244.83 199.379 248.826 199.81C248.826 199.81 242.322 207.884 234.244 199.81C239.756 198.428 241.535 196.164 241.535 196.164Z" fill="#000000" fill-rule="nonzero" opacity="1" stroke="none" vectornator:layerName="path"/>
</g>
</g>
</svg>
