
<svg height="100%" stroke-miterlimit="10" style="fill-rule:nonzero;clip-rule:evenodd;stroke-linecap:round;stroke-linejoin:round;" version="1.1" viewBox="372.334 190.618 39.9996 38.3432" width="100%" xml:space="preserve" xmlns="http://www.w3.org/2000/svg" xmlns:vectornator="http://vectornator.io" xmlns:xlink="http://www.w3.org/1999/xlink">
<defs>
<linearGradient gradientTransform="matrix(39.9996 0 0 39.9996 372.334 209.79)" gradientUnits="userSpaceOnUse" id="LinearGradient" x1="0" x2="1" y1="0" y2="0">
<stop offset="0" stop-color="#f259bd"/>
<stop offset="1" stop-color="#780a5f"/>
</linearGradient>
</defs>
<clipPath id="ArtboardFrame">
<rect height="38.3432" width="39.9996" x="372.334" y="190.618"/>
</clipPath>
<g clip-path="url(#ArtboardFrame)" id="Layer" vectornator:layerName="Layer">
<g opacity="1" vectornator:layerName="Godtier">
<path d="M405.672 194.702C405.752 193.623 398.717 192.28 395.076 194.494C391.862 196.45 390.426 205.368 392.089 205.866C393.698 206.349 395.425 199.6 398.025 197.944C400.737 196.214 405.592 195.78 405.672 194.702ZM385.935 190.665C385.041 190.056 380.36 195.477 380.457 199.738C380.543 203.499 387.549 209.202 388.812 208.011C390.034 206.858 385.054 201.989 384.919 198.909C384.777 195.695 386.829 191.274 385.935 190.665ZM398.749 228.914C399.643 229.523 404.324 224.102 404.227 219.841C404.141 216.08 397.135 210.377 395.872 211.568C394.65 212.721 399.63 217.59 399.765 220.67C399.907 223.883 397.855 228.305 398.749 228.914ZM412.113 213.839C413.087 213.369 410.733 206.605 406.995 204.559C403.695 202.753 395.253 205.969 395.653 207.658C396.04 209.293 402.748 207.414 405.483 208.837C408.336 210.321 411.139 214.309 412.113 213.839ZM372.554 205.892C371.58 206.362 373.934 213.126 377.672 215.172C380.972 216.978 389.414 213.762 389.014 212.073C388.627 210.438 381.919 212.317 379.184 210.894C376.331 209.41 373.528 205.422 372.554 205.892ZM378.927 225.003C378.847 226.082 385.882 227.425 389.523 225.212C392.737 223.256 394.173 214.337 392.51 213.839C390.901 213.357 389.174 220.105 386.574 221.762C383.862 223.491 379.007 223.925 378.927 225.003Z" fill="url(#LinearGradient)" fill-rule="nonzero" opacity="1" stroke="none" vectornator:layerName="path"/>
</g>
</g>
</svg>
